<?xml version="1.0" encoding="utf-8"?>
<!-- Svg Vector Icons : http://www.onlinewebfonts.com/icon -->
<!DOCTYPE svg PUBLIC "-//W3C//DTD SVG 1.1//EN" "http://www.w3.org/Graphics/SVG/1.1/DTD/svg11.dtd">
<svg version="1.1" xmlns="http://www.w3.org/2000/svg" xmlns:xlink="http://www.w3.org/1999/xlink" x="0px" y="0px" viewBox="0 0 1000 1000" enable-background="new 0 0 1000 1000" xml:space="preserve">
<metadata> Svg Vector Icons : http://www.onlinewebfonts.com/icon </metadata>
<g><g transform="translate(0.000000,511.000000) scale(0.100000,-0.100000)"><path d="M6578.2,2126.4c-49.6-47.3-59.1-80.4-59.1-189.1v-130h-413.8c-399.6,0-413.8,2.4-498.9,59.1c-47.3,30.7-118.2,63.8-160.8,70.9c-42.6,9.5-305-26-633.6-82.7l-560.3-99.3l-437.4,73.3c-1274.4,212.8-2182.2,219.9-3224.9,23.6c-281.4-52-359.4-85.1-435-191.5c-52-73.3-54.4-99.3-54.4-444.5c0-349.9,2.4-371.2,56.7-446.9c82.8-115.8,203.3-156,640.7-224.6c532-80.4,1113.6-118.2,1577-99.3C2856.8,462,3093.2,488,3733.9,592l513,82.7l584-73.3c621.8-78,688-75.7,777.9,23.6c40.2,44.9,75.7,47.3,470.5,47.3h427.9l177.3-345.2C6812.2,79,6878.4-25.1,6925.7-51.1c47.3-23.6,158.4-33.1,427.9-33.1h364.1l44.9-217.5c28.4-141.9,61.5-238.8,94.6-279c52-56.8,61.5-59.1,347.5-59.1c345.2,0,375.9,16.6,416.1,203.3c14.2,63.8,37.8,170.2,52,234.1l26,118.2h347.6c193.8,0,383,11.8,423.2,26c66.2,21.3,96.9,70.9,253,375.9L9900,670v709.3c0,680.9-2.4,714-47.3,758.9c-47.3,47.3-78,47.3-1631.4,47.3H6634.9L6578.2,2126.4z M9545.4,1287.1V767l-118.2-236.4l-118.2-236.4H8221.3H7133.8l-118.2,236.4L6897.3,767v520.1v520.1h1324h1324V1287.1z M6519.1,1239.8v-189.1h-378.3h-378.3v189.1V1429h378.3h378.3V1239.8z M8315.9-124.4c0-106.4-28.4-148.9-96.9-148.9c-54.4,0-70.9,11.8-82.7,66.2c-7.1,35.5-16.6,78-23.7,94.6c-4.7,18.9,23.7,28.4,96.9,28.4C8294.6-84.2,8315.9-91.3,8315.9-124.4z"/><path d="M8079.5-1183.6c-186.8-222.3-241.2-331-229.3-458.7c11.8-111.1,63.8-196.2,167.9-271.9c92.2-68.5,314.5-68.5,406.6,0c167.9,125.3,215.2,293.2,127.7,465.8c-47.3,94.6-288.4,397.2-328.6,411.4C8216.6-1032.2,8150.4-1100.8,8079.5-1183.6z"/></g></g>
</svg>